<?xml version="1.0" encoding="UTF-8" ?>
<!DOCTYPE svg PUBLIC "-//W3C//DTD SVG 1.1//EN" "http://www.w3.org/Graphics/SVG/1.1/DTD/svg11.dtd">
<svg width="1080pt" height="1080pt" viewBox="0 0 1080 1080" version="1.1" xmlns="http://www.w3.org/2000/svg">
<g id="#ffffffff">
<path fill="#ffffff" opacity="1.00" d=" M 512.45 239.55 C 515.86 238.33 519.52 238.01 522.89 236.67 L 521.97 237.71 C 596.08 235.80 671.40 244.86 740.68 272.24 C 747.18 275.01 754.00 277.21 760.00 281.03 C 762.57 282.60 765.39 283.72 768.18 284.84 C 777.69 288.60 786.52 293.80 795.65 298.35 C 804.36 303.92 813.31 309.16 821.52 315.48 C 839.24 328.11 854.59 343.84 867.94 360.97 C 874.09 370.29 880.74 379.32 885.74 389.35 C 893.38 404.39 899.62 420.25 903.22 436.76 C 904.11 440.79 905.49 444.71 906.25 448.77 C 909.40 467.71 910.59 487.04 908.72 506.17 C 906.02 535.19 897.41 563.48 884.85 589.72 C 871.00 619.83 851.91 647.28 830.47 672.46 C 815.65 689.27 800.11 705.51 783.09 720.12 C 761.96 738.61 739.52 755.59 716.01 770.94 C 668.67 802.05 617.10 826.25 563.99 845.71 C 558.43 847.14 552.69 847.65 546.96 847.51 C 495.48 848.26 443.74 843.50 393.69 831.19 C 388.15 829.80 382.51 828.76 377.16 826.75 C 369.18 823.49 360.63 822.04 352.43 819.47 C 327.52 811.63 303.21 801.57 280.67 788.31 C 252.06 771.45 226.21 749.29 207.08 722.01 C 185.97 691.76 171.60 656.22 168.73 619.26 C 163.97 584.19 169.97 548.29 182.42 515.37 C 193.32 486.12 209.77 459.27 228.68 434.56 C 245.84 411.38 265.66 390.26 286.93 370.82 C 351.88 311.91 430.14 268.95 512.45 239.55 M 743.96 417.06 C 741.81 422.02 741.93 427.47 741.53 432.75 C 740.11 434.34 737.25 434.13 735.33 435.19 C 735.14 436.55 734.98 437.91 734.83 439.29 C 736.85 438.91 738.87 438.49 740.89 438.06 C 741.27 444.43 739.88 450.70 739.82 457.06 C 739.52 466.68 737.94 476.37 739.65 485.96 C 738.76 490.59 734.60 496.11 729.25 494.94 C 726.42 487.31 728.69 478.94 728.99 471.04 C 728.96 462.28 730.43 453.60 730.10 444.83 C 723.29 438.15 712.58 439.53 704.35 442.44 C 691.83 446.27 681.30 455.78 676.13 467.79 C 671.98 477.53 670.90 488.70 673.84 498.92 C 675.47 504.53 678.84 510.06 684.27 512.66 C 690.25 515.03 697.26 513.07 702.01 508.99 C 706.00 505.45 708.24 500.49 710.83 495.93 C 712.93 499.58 715.27 504.08 720.01 504.55 C 729.02 505.82 737.47 499.52 741.64 491.89 C 743.85 493.64 745.79 496.14 748.77 496.53 C 754.98 497.64 760.95 494.47 765.66 490.69 C 769.81 491.24 774.03 491.18 778.13 490.25 C 786.37 489.74 794.81 488.30 802.09 484.18 C 814.96 476.55 823.30 462.10 823.91 447.20 C 823.14 447.16 821.58 447.08 820.81 447.04 C 819.78 451.01 819.21 455.10 817.73 458.94 C 814.47 467.68 808.34 475.63 799.92 479.91 C 801.80 476.07 804.53 472.45 804.99 468.08 C 805.41 462.53 804.21 456.76 801.18 452.05 C 798.09 447.79 794.02 444.37 789.92 441.13 C 787.29 438.94 784.46 436.45 783.82 432.91 C 782.70 428.12 787.01 422.94 791.95 423.33 C 794.95 423.75 796.80 426.39 799.20 427.95 C 802.30 428.74 805.38 424.28 803.29 421.77 C 801.31 418.75 797.35 417.82 793.97 418.08 C 785.07 419.21 776.17 423.73 771.35 431.50 C 768.02 438.19 769.24 445.85 768.93 453.03 C 768.90 457.37 767.36 461.72 768.44 466.03 C 768.11 467.99 771.45 468.02 771.11 465.93 C 772.85 460.57 771.92 454.82 772.93 449.33 C 776.06 451.38 778.48 454.26 781.24 456.75 C 783.46 458.90 785.95 461.06 786.95 464.09 C 788.65 471.52 785.46 480.00 779.08 484.21 C 776.59 484.02 774.36 482.87 772.15 481.84 C 774.60 474.84 777.43 467.65 776.98 460.09 C 776.25 460.04 774.80 459.94 774.08 459.89 C 772.03 466.18 772.00 473.09 768.81 479.06 C 766.99 478.85 764.95 477.74 763.32 479.08 C 760.55 481.03 761.43 484.77 761.61 487.63 C 759.52 487.46 757.56 486.10 757.21 483.97 C 756.90 477.68 757.06 471.35 757.91 465.10 C 758.19 454.28 759.22 443.50 759.63 432.67 C 762.67 431.79 765.72 430.96 768.70 429.89 C 769.00 428.17 769.30 426.45 769.60 424.74 C 766.46 425.76 763.38 426.93 760.24 427.92 C 760.27 420.05 761.25 412.22 761.61 404.36 C 754.35 405.81 746.76 409.80 743.96 417.06 M 629.63 423.92 C 627.48 429.51 627.65 435.62 629.07 441.36 C 626.32 439.71 623.83 437.60 621.97 434.98 C 618.15 429.66 618.08 422.77 617.99 416.49 C 614.24 416.81 611.75 420.08 610.34 423.27 C 608.11 429.31 610.10 436.13 613.85 441.12 C 618.31 447.11 625.68 450.14 632.86 451.27 C 635.58 451.57 637.37 453.81 639.07 455.72 C 628.59 455.35 617.21 456.05 608.53 462.64 C 594.05 473.10 589.23 493.80 595.73 510.12 C 599.77 521.40 609.72 530.04 621.15 533.28 C 631.55 536.07 642.99 535.50 652.82 530.96 C 661.35 527.04 668.40 519.32 670.23 509.97 C 671.76 504.18 670.55 497.75 667.25 492.79 C 664.68 489.45 661.04 486.04 656.51 486.39 C 658.00 489.86 659.81 493.26 660.41 497.05 C 662.48 508.50 656.77 520.96 646.66 526.79 C 634.64 534.37 616.89 528.88 610.92 516.05 C 603.18 500.10 609.89 479.87 623.46 469.28 C 630.73 463.80 639.83 460.71 648.95 460.83 C 653.66 462.85 658.99 467.37 664.15 463.81 C 664.02 458.71 658.41 456.49 654.07 456.08 C 650.66 456.11 647.27 454.66 645.44 451.69 C 653.93 450.52 662.45 447.65 668.94 441.85 C 674.19 437.45 677.69 430.86 677.90 423.97 C 677.43 418.71 674.72 413.67 670.46 410.54 C 665.00 406.28 657.66 405.04 650.93 406.02 C 641.41 407.84 633.07 414.87 629.63 423.92 M 532.02 451.95 C 529.13 457.49 529.11 463.96 528.86 470.05 C 527.42 488.68 526.49 507.35 525.04 525.98 C 524.82 532.34 524.36 538.74 525.51 545.05 C 524.76 549.48 521.24 553.20 517.13 554.89 C 512.91 553.10 513.63 547.86 513.80 544.14 C 514.41 530.76 515.86 517.44 516.05 504.05 C 512.41 500.40 507.08 499.01 502.06 499.14 C 491.31 500.14 480.57 504.23 472.68 511.74 C 462.51 521.17 457.22 535.33 458.07 549.10 C 458.26 552.75 459.42 556.25 459.90 559.85 C 457.42 567.73 451.47 575.41 443.03 577.14 C 439.12 578.06 436.16 574.67 434.64 571.53 C 429.72 561.47 429.57 549.85 430.45 538.92 C 431.30 533.02 432.56 526.97 435.82 521.88 C 438.12 518.69 443.12 516.61 446.51 519.35 C 448.24 520.44 449.62 522.85 451.95 522.44 C 454.47 522.27 455.53 519.25 454.90 517.11 C 453.34 513.79 449.48 512.38 446.02 512.35 C 436.28 513.30 427.48 519.02 421.74 526.80 C 414.16 537.08 410.54 550.30 412.14 563.00 C 413.38 570.30 416.64 577.95 423.27 581.88 C 430.36 586.36 439.58 585.08 446.86 581.77 C 454.06 578.52 458.89 571.97 462.67 565.30 C 466.51 570.42 472.86 574.84 479.52 572.44 C 488.29 570.66 492.93 562.29 496.69 555.02 C 498.15 557.29 499.24 559.92 501.32 561.74 C 504.59 564.23 509.07 564.60 512.87 563.20 C 519.32 561.54 524.22 556.52 527.56 550.98 C 530.18 553.49 533.17 555.97 537.02 555.94 C 544.39 555.62 551.33 551.37 555.23 545.15 C 560.15 537.45 563.03 528.25 562.74 519.08 C 562.06 519.08 560.72 519.09 560.04 519.10 C 557.92 527.99 557.11 538.31 549.83 544.83 C 547.97 546.91 544.03 546.78 543.43 543.65 C 542.17 535.48 543.83 527.16 544.05 518.95 C 545.55 493.37 547.32 467.82 548.63 442.23 C 542.33 443.58 535.40 446.03 532.02 451.95 M 316.54 502.48 C 304.94 511.52 297.74 525.12 293.85 539.09 C 288.90 556.27 287.79 574.20 284.99 591.77 C 271.48 594.48 256.56 593.75 244.60 586.32 C 240.97 584.34 238.26 581.09 234.71 579.03 C 234.07 582.65 234.06 586.63 236.10 589.85 C 239.70 595.89 246.37 599.24 252.94 601.07 C 263.15 604.25 273.97 602.90 284.17 600.44 C 283.89 602.63 283.50 604.82 282.91 606.97 C 277.87 606.77 272.86 607.51 267.92 608.43 C 259.46 610.27 250.74 614.59 246.76 622.70 C 244.39 626.61 243.96 632.18 247.30 635.68 C 250.81 639.37 256.30 639.73 261.05 638.97 C 270.05 637.28 278.34 632.32 284.24 625.33 C 285.46 623.24 288.09 624.06 290.06 624.03 C 299.01 625.21 307.97 626.33 316.98 626.98 C 325.87 627.32 335.34 626.84 343.19 622.20 C 348.90 619.03 352.71 612.15 351.07 605.61 C 347.79 607.67 345.12 610.99 341.00 611.37 C 325.88 613.31 311.00 608.77 296.01 607.58 C 297.81 602.84 299.24 597.95 301.21 593.28 C 304.50 590.47 308.43 588.51 311.73 585.70 C 325.27 575.28 335.23 560.87 342.53 545.57 C 347.35 535.50 350.16 524.06 348.11 512.92 C 346.92 505.87 342.13 498.96 334.92 497.15 C 328.38 495.97 321.63 498.37 316.54 502.48 M 382.03 531.23 C 364.39 532.81 350.88 548.30 347.36 564.97 C 345.68 574.38 345.30 584.92 350.71 593.26 C 354.60 599.79 362.36 603.62 369.91 602.84 C 375.88 602.10 381.92 600.62 386.99 597.23 C 401.37 587.92 409.19 569.93 407.25 553.04 C 406.74 547.09 404.33 541.20 400.12 536.90 C 395.50 532.18 388.49 530.23 382.03 531.23 M 670.11 543.11 C 667.48 556.92 667.11 571.10 664.82 584.98 C 664.40 587.41 661.79 588.32 660.06 589.68 C 664.32 588.47 668.60 587.35 672.80 585.93 C 671.54 585.81 670.28 585.66 669.04 585.50 C 668.90 581.12 668.96 576.67 670.05 572.41 C 674.26 571.25 678.49 570.12 682.70 568.95 C 685.19 572.37 687.94 575.61 690.14 579.24 C 690.13 579.72 690.13 580.69 690.13 581.18 C 694.53 580.22 698.94 579.19 703.18 577.66 C 700.46 577.84 697.46 577.61 695.71 575.20 C 689.45 567.79 683.80 559.86 677.80 552.23 C 675.28 549.15 673.22 545.64 670.11 543.11 M 613.12 562.99 C 603.80 572.85 608.20 591.38 620.86 596.12 C 630.16 599.79 640.67 596.93 649.09 592.27 C 649.06 589.30 649.28 586.28 648.56 583.36 C 647.30 585.85 647.31 589.13 644.79 590.82 C 639.05 595.15 630.58 595.25 624.47 591.61 C 617.76 587.26 614.30 578.91 614.97 571.06 C 614.67 565.85 618.33 560.94 623.11 559.11 C 627.46 557.41 632.46 556.19 636.99 557.99 C 639.39 558.77 640.46 561.32 642.16 562.99 C 641.78 559.84 640.84 556.80 640.09 553.74 C 630.54 553.76 619.97 555.84 613.12 562.99 M 574.00 570.58 C 575.27 570.80 576.56 571.00 577.85 571.20 C 579.85 574.29 580.41 577.98 581.43 581.45 C 583.71 590.23 586.58 598.88 588.08 607.84 C 587.03 608.69 586.00 609.57 585.00 610.48 C 590.23 608.46 596.03 607.96 601.02 605.39 C 599.34 605.77 597.62 606.16 595.90 605.98 C 594.39 604.51 594.01 602.33 593.37 600.42 C 590.91 591.63 588.45 582.85 586.00 574.06 C 585.64 572.49 585.01 570.86 585.42 569.24 C 586.29 568.41 587.25 567.68 588.17 566.90 C 583.41 568.01 578.82 569.75 574.00 570.58 M 537.04 581.03 C 533.05 582.30 528.89 582.98 524.98 584.47 C 526.71 584.44 528.44 584.41 530.18 584.37 C 533.55 592.30 535.05 600.85 537.57 609.06 C 538.75 613.54 540.74 618.09 539.61 622.83 C 543.85 621.63 548.21 620.84 552.34 619.28 C 550.64 619.19 548.94 619.12 547.25 618.97 C 545.35 614.14 543.48 609.20 542.90 604.02 C 544.90 603.50 546.93 602.91 549.03 602.97 C 553.81 606.51 557.96 610.98 563.33 613.70 C 567.67 616.39 572.80 613.83 577.13 612.40 C 570.39 613.06 565.20 608.35 560.06 604.79 C 557.79 603.02 555.12 601.71 553.22 599.52 C 553.99 596.91 555.75 594.70 556.47 592.06 C 558.10 587.26 555.68 581.07 550.71 579.40 C 546.12 577.97 541.44 579.78 537.04 581.03 M 484.97 595.43 C 486.60 595.39 488.21 595.63 489.78 596.10 C 492.85 605.62 495.21 615.35 497.99 624.96 C 498.94 627.93 499.06 631.07 498.81 634.16 C 503.27 632.69 507.97 632.04 512.36 630.32 C 510.59 630.33 508.82 630.41 507.07 630.47 C 504.18 624.69 503.12 618.29 501.13 612.21 C 505.25 611.01 510.93 607.65 514.14 612.16 C 513.85 609.87 513.45 607.60 513.12 605.32 C 509.18 607.35 504.93 608.67 500.57 609.42 C 499.25 604.61 497.40 599.89 496.90 594.91 C 500.33 593.33 504.25 592.88 507.94 592.04 C 508.95 593.15 509.98 594.24 511.09 595.29 C 510.83 592.95 510.30 590.67 509.76 588.41 C 501.60 591.09 493.21 593.00 484.97 595.43 M 453.27 602.92 C 451.65 616.60 450.14 630.30 448.54 643.99 C 448.39 646.61 445.98 647.76 444.04 648.99 C 448.18 648.37 452.23 647.05 456.15 645.58 C 454.32 645.86 451.92 645.19 452.18 642.88 C 452.58 639.46 452.69 635.81 453.58 632.57 C 457.70 630.78 462.15 629.64 466.60 628.96 C 468.76 632.49 471.60 635.54 473.83 639.02 C 473.73 639.54 473.51 640.59 473.40 641.12 C 477.61 640.09 481.77 638.87 485.97 637.78 L 485.93 637.28 C 482.83 637.65 479.88 636.54 478.23 633.83 C 470.72 624.57 463.65 614.97 456.36 605.54 C 455.49 604.48 454.77 603.09 453.27 602.92 Z" />
<path fill="#ffffff" opacity="1.00" d=" M 660.47 416.61 C 664.73 415.76 669.93 416.71 672.24 420.78 C 675.16 425.12 672.99 430.50 670.71 434.60 C 666.33 442.16 657.27 445.40 648.96 445.99 C 646.79 445.92 644.39 446.47 642.38 445.54 C 641.14 440.02 642.97 434.29 645.37 429.33 C 648.24 423.19 653.81 418.14 660.47 416.61 Z" />
<path fill="#ffffff" opacity="1.00" d=" M 699.76 450.92 C 702.25 447.27 706.74 445.42 711.10 446.04 C 712.89 449.48 711.47 453.48 711.32 457.14 C 710.45 469.65 709.98 482.37 706.37 494.47 C 704.98 498.72 702.79 503.68 698.08 504.99 C 694.87 505.23 693.65 501.69 692.84 499.22 C 690.23 490.01 690.86 480.24 692.31 470.90 C 693.59 463.88 695.83 456.92 699.76 450.92 Z" />
<path fill="#ffffff" opacity="1.00" d=" M 485.35 510.48 C 487.97 506.55 493.41 503.38 497.93 506.16 C 496.98 520.08 496.54 534.13 493.71 547.85 C 492.40 553.14 491.11 559.06 486.77 562.78 C 484.95 564.59 481.26 564.52 480.17 561.94 C 476.74 555.18 477.00 547.31 477.10 539.93 C 477.77 529.72 479.67 519.18 485.35 510.48 Z" />
<path fill="#ffffff" opacity="1.00" d=" M 317.26 510.25 C 319.74 507.23 324.29 504.80 328.01 507.15 C 333.36 510.34 335.14 517.15 335.28 523.01 C 337.29 547.41 325.07 573.29 303.20 585.08 C 306.15 567.86 307.49 550.42 309.63 533.10 C 310.81 525.17 311.80 516.55 317.26 510.25 Z" />
<path fill="#ffffff" opacity="1.00" d=" M 372.37 538.42 C 375.43 536.84 379.53 537.64 381.60 540.45 C 386.53 546.47 388.17 554.42 389.01 561.97 C 390.21 571.09 389.76 580.68 386.24 589.28 C 384.67 592.90 381.32 596.61 377.00 596.10 C 372.98 596.16 370.69 592.06 368.90 589.02 C 364.94 580.63 363.72 571.17 363.94 561.97 C 363.81 556.39 364.71 550.78 366.60 545.53 C 367.67 542.61 369.55 539.86 372.37 538.42 Z" />
<path fill="#ffffff" opacity="1.00" d=" M 671.69 554.01 C 675.14 557.97 678.06 562.37 680.82 566.84 C 677.35 568.04 673.80 568.93 670.25 569.84 C 670.46 564.55 671.06 559.27 671.69 554.01 Z" />
<path fill="#ffffff" opacity="1.00" d=" M 537.01 583.37 C 540.32 581.98 544.50 581.23 547.51 583.69 C 551.32 586.84 552.83 592.60 551.34 597.26 C 550.09 601.20 545.39 601.27 542.00 601.73 C 540.22 595.64 538.43 589.55 537.01 583.37 Z" />
<path fill="#ffffff" opacity="1.00" d=" M 455.19 613.74 C 458.55 617.78 461.71 622.05 464.25 626.67 C 460.84 627.69 457.45 628.87 453.89 629.18 C 453.84 623.99 454.66 618.88 455.19 613.74 Z" />
<path fill="#ffffff" opacity="1.00" d=" M 254.35 626.37 C 260.38 620.53 269.50 621.41 277.16 622.26 C 277.19 624.89 275.22 626.77 273.48 628.49 C 268.69 633.12 261.78 635.89 255.10 634.77 C 251.59 633.48 251.72 628.52 254.35 626.37 Z" />
</g>
<g id="#ef962eff">
<path fill="#ef962e" opacity="1.00" d=" M 641.64 213.55 C 655.73 212.65 669.83 213.75 683.93 213.86 C 732.23 216.23 780.46 223.69 826.54 238.55 C 858.48 249.00 889.46 262.88 917.48 281.53 C 941.70 297.67 963.81 317.33 981.20 340.76 C 998.59 363.83 1011.11 390.61 1017.19 418.87 C 1020.80 435.98 1022.55 453.48 1022.01 470.96 C 1020.23 493.03 1016.45 515.05 1009.18 536.02 C 996.78 572.68 976.60 606.33 952.49 636.45 C 925.56 670.08 893.72 699.60 859.17 725.25 C 799.19 769.71 731.44 803.15 660.67 826.61 C 638.74 833.50 616.79 840.62 594.21 845.05 C 584.11 844.46 574.01 847.44 563.99 845.71 C 617.10 826.25 668.67 802.05 716.01 770.94 C 739.52 755.59 761.96 738.61 783.09 720.12 C 800.11 705.51 815.65 689.27 830.47 672.46 C 851.91 647.28 871.00 619.83 884.85 589.72 C 897.41 563.48 906.02 535.19 908.72 506.17 C 910.59 487.04 909.40 467.71 906.25 448.77 C 905.49 444.71 904.11 440.79 903.22 436.76 C 899.62 420.25 893.38 404.39 885.74 389.35 C 880.74 379.32 874.09 370.29 867.94 360.97 C 854.59 343.84 839.24 328.11 821.52 315.48 C 813.31 309.16 804.36 303.92 795.65 298.35 C 786.52 293.80 777.69 288.60 768.18 284.84 C 765.39 283.72 762.57 282.60 760.00 281.03 C 754.00 277.21 747.18 275.01 740.68 272.24 C 671.40 244.86 596.08 235.80 521.97 237.71 L 522.89 236.67 C 537.96 230.77 553.65 226.53 569.23 222.20 C 575.92 220.60 582.43 218.13 589.27 217.19 C 589.36 216.97 589.54 216.54 589.63 216.32 L 589.69 216.15 C 593.43 216.49 597.14 215.75 600.86 215.50 C 614.42 214.31 628.03 213.69 641.64 213.55 Z" />
</g>
<g id="#337358ff">
<path fill="#337358" opacity="1.00" d=" M 544.97 222.07 C 559.77 219.63 574.79 218.18 589.63 216.32 C 589.54 216.54 589.36 216.97 589.27 217.19 C 582.43 218.13 575.92 220.60 569.23 222.20 C 553.65 226.53 537.96 230.77 522.89 236.67 C 519.52 238.01 515.86 238.33 512.45 239.55 C 430.14 268.95 351.88 311.91 286.93 370.82 C 265.66 390.26 245.84 411.38 228.68 434.56 C 209.77 459.27 193.32 486.12 182.42 515.37 C 169.97 548.29 163.97 584.19 168.73 619.26 C 171.60 656.22 185.97 691.76 207.08 722.01 C 226.21 749.29 252.06 771.45 280.67 788.31 C 303.21 801.57 327.52 811.63 352.43 819.47 C 360.63 822.04 369.18 823.49 377.16 826.75 C 382.51 828.76 388.15 829.80 393.69 831.19 C 443.74 843.50 495.48 848.26 546.96 847.51 C 552.69 847.65 558.43 847.14 563.99 845.71 C 574.01 847.44 584.11 844.46 594.21 845.05 C 584.70 847.99 574.87 849.67 565.12 851.57 C 551.55 854.47 537.82 856.53 524.13 858.68 C 446.36 869.21 366.41 868.57 289.82 850.30 C 245.80 839.64 202.82 823.17 164.82 798.26 C 136.50 779.58 110.94 756.03 92.33 727.52 C 72.96 698.33 61.42 663.99 59.41 629.01 C 58.99 614.28 59.01 599.44 61.48 584.87 C 67.40 545.52 83.65 508.37 104.98 475.00 C 118.95 453.15 135.42 433.00 153.08 414.04 C 159.00 408.31 164.73 402.39 170.56 396.57 C 215.95 353.78 268.49 318.92 324.38 291.40 C 393.83 257.29 468.59 234.20 544.97 222.07 Z" />
</g>
<g id="#000000ff">
<path fill="#000000" opacity="1.00" d=" M 743.96 417.06 C 746.76 409.80 754.35 405.81 761.61 404.36 C 761.25 412.22 760.27 420.05 760.24 427.92 C 763.38 426.93 766.46 425.76 769.60 424.74 C 769.30 426.45 769.00 428.17 768.70 429.89 C 765.72 430.96 762.67 431.79 759.63 432.67 C 759.22 443.50 758.19 454.28 757.91 465.10 C 757.06 471.35 756.90 477.68 757.21 483.97 C 757.56 486.10 759.52 487.46 761.61 487.63 C 761.43 484.77 760.55 481.03 763.32 479.08 C 764.95 477.74 766.99 478.85 768.81 479.06 C 772.00 473.09 772.03 466.18 774.08 459.89 C 774.80 459.94 776.25 460.04 776.98 460.09 C 777.43 467.65 774.60 474.84 772.15 481.84 C 774.36 482.87 776.59 484.02 779.08 484.21 C 785.46 480.00 788.65 471.52 786.95 464.09 C 785.95 461.06 783.46 458.90 781.24 456.75 C 778.48 454.26 776.06 451.38 772.93 449.33 C 771.92 454.82 772.85 460.57 771.11 465.93 C 771.45 468.02 768.11 467.99 768.44 466.03 C 767.36 461.72 768.90 457.37 768.93 453.03 C 769.24 445.85 768.02 438.19 771.35 431.50 C 776.17 423.73 785.07 419.21 793.97 418.08 C 797.35 417.82 801.31 418.75 803.29 421.77 C 805.38 424.28 802.30 428.74 799.20 427.95 C 796.80 426.39 794.95 423.75 791.95 423.33 C 787.01 422.94 782.70 428.12 783.82 432.91 C 784.46 436.45 787.29 438.94 789.92 441.13 C 794.02 444.37 798.09 447.79 801.18 452.05 C 804.21 456.76 805.41 462.53 804.99 468.08 C 804.53 472.45 801.80 476.07 799.92 479.91 C 808.34 475.63 814.47 467.68 817.73 458.94 C 819.21 455.10 819.78 451.01 820.81 447.04 C 821.58 447.08 823.14 447.16 823.91 447.20 C 823.30 462.10 814.96 476.55 802.09 484.18 C 794.81 488.30 786.37 489.74 778.13 490.25 C 774.03 491.18 769.81 491.24 765.66 490.69 C 760.95 494.47 754.98 497.64 748.77 496.53 C 745.79 496.14 743.85 493.64 741.64 491.89 C 737.47 499.52 729.02 505.82 720.01 504.55 C 715.27 504.08 712.93 499.58 710.83 495.93 C 708.24 500.49 706.00 505.45 702.01 508.99 C 697.26 513.07 690.25 515.03 684.27 512.66 C 678.84 510.06 675.47 504.53 673.84 498.92 C 670.90 488.70 671.98 477.53 676.13 467.79 C 681.30 455.78 691.83 446.27 704.35 442.44 C 712.58 439.53 723.29 438.15 730.10 444.83 C 730.43 453.60 728.96 462.28 728.99 471.04 C 728.69 478.94 726.42 487.31 729.25 494.94 C 734.60 496.11 738.76 490.59 739.65 485.96 C 737.94 476.37 739.52 466.68 739.82 457.06 C 739.88 450.70 741.27 444.43 740.89 438.06 C 738.87 438.49 736.85 438.91 734.83 439.29 C 734.98 437.91 735.14 436.55 735.33 435.19 C 737.25 434.13 740.11 434.34 741.53 432.75 C 741.93 427.47 741.81 422.02 743.96 417.06 M 699.76 450.92 C 695.83 456.92 693.59 463.88 692.31 470.90 C 690.86 480.24 690.23 490.01 692.84 499.22 C 693.65 501.69 694.87 505.23 698.08 504.99 C 702.79 503.68 704.98 498.72 706.37 494.47 C 709.98 482.37 710.45 469.65 711.32 457.14 C 711.47 453.48 712.89 449.48 711.10 446.04 C 706.74 445.42 702.25 447.27 699.76 450.92 Z" />
<path fill="#000000" opacity="1.00" d=" M 629.63 423.92 C 633.07 414.87 641.41 407.84 650.93 406.02 C 657.66 405.04 665.00 406.28 670.46 410.54 C 674.72 413.67 677.43 418.71 677.90 423.97 C 677.69 430.86 674.19 437.45 668.94 441.85 C 662.45 447.65 653.93 450.52 645.44 451.69 C 647.27 454.66 650.66 456.11 654.07 456.08 C 658.41 456.49 664.02 458.71 664.15 463.81 C 658.99 467.37 653.66 462.85 648.95 460.83 C 639.83 460.71 630.73 463.80 623.46 469.28 C 609.89 479.87 603.18 500.10 610.92 516.05 C 616.89 528.88 634.64 534.37 646.66 526.79 C 656.77 520.96 662.48 508.50 660.41 497.05 C 659.81 493.26 658.00 489.86 656.51 486.39 C 661.04 486.04 664.68 489.45 667.25 492.79 C 670.55 497.75 671.76 504.18 670.23 509.97 C 668.40 519.32 661.35 527.04 652.82 530.96 C 642.99 535.50 631.55 536.07 621.15 533.28 C 609.72 530.04 599.77 521.40 595.73 510.12 C 589.23 493.80 594.05 473.10 608.53 462.64 C 617.21 456.05 628.59 455.35 639.07 455.72 C 637.37 453.81 635.58 451.57 632.86 451.27 C 625.68 450.14 618.31 447.11 613.85 441.12 C 610.10 436.13 608.11 429.31 610.34 423.27 C 611.75 420.08 614.24 416.81 617.99 416.49 C 618.08 422.77 618.15 429.66 621.97 434.98 C 623.83 437.60 626.32 439.71 629.07 441.36 C 627.65 435.62 627.48 429.51 629.63 423.92 M 660.47 416.61 C 653.81 418.14 648.24 423.19 645.37 429.33 C 642.97 434.29 641.14 440.02 642.38 445.54 C 644.39 446.47 646.79 445.92 648.96 445.99 C 657.27 445.40 666.33 442.16 670.71 434.60 C 672.99 430.50 675.16 425.12 672.24 420.78 C 669.93 416.71 664.73 415.76 660.47 416.61 Z" />
<path fill="#000000" opacity="1.00" d=" M 532.02 451.95 C 535.40 446.03 542.33 443.58 548.63 442.23 C 547.32 467.82 545.55 493.37 544.05 518.95 C 543.83 527.16 542.17 535.48 543.43 543.65 C 544.03 546.78 547.97 546.91 549.83 544.83 C 557.11 538.31 557.92 527.99 560.04 519.10 C 560.72 519.09 562.06 519.08 562.74 519.08 C 563.03 528.25 560.15 537.45 555.23 545.15 C 551.33 551.37 544.39 555.62 537.02 555.94 C 533.17 555.97 530.18 553.49 527.56 550.98 C 524.22 556.52 519.32 561.54 512.87 563.20 C 509.07 564.60 504.59 564.23 501.32 561.74 C 499.24 559.92 498.15 557.29 496.69 555.02 C 492.93 562.29 488.29 570.66 479.52 572.44 C 472.86 574.84 466.51 570.42 462.67 565.30 C 458.89 571.97 454.06 578.52 446.86 581.77 C 439.58 585.08 430.36 586.36 423.27 581.88 C 416.64 577.95 413.38 570.30 412.14 563.00 C 410.54 550.30 414.16 537.08 421.74 526.80 C 427.48 519.02 436.28 513.30 446.02 512.35 C 449.48 512.38 453.34 513.79 454.90 517.11 C 455.53 519.25 454.47 522.27 451.95 522.44 C 449.62 522.85 448.24 520.44 446.51 519.35 C 443.12 516.61 438.12 518.69 435.82 521.88 C 432.56 526.97 431.30 533.02 430.45 538.92 C 429.57 549.85 429.72 561.47 434.64 571.53 C 436.16 574.67 439.12 578.06 443.03 577.14 C 451.47 575.41 457.42 567.73 459.90 559.85 C 459.42 556.25 458.26 552.75 458.07 549.10 C 457.22 535.33 462.51 521.17 472.68 511.74 C 480.57 504.23 491.31 500.14 502.06 499.14 C 507.08 499.01 512.41 500.40 516.05 504.05 C 515.86 517.44 514.41 530.76 513.80 544.14 C 513.63 547.86 512.91 553.10 517.13 554.89 C 521.24 553.20 524.76 549.48 525.51 545.05 C 524.36 538.74 524.82 532.34 525.04 525.98 C 526.49 507.35 527.42 488.68 528.86 470.05 C 529.11 463.96 529.13 457.49 532.02 451.95 M 485.35 510.48 C 479.67 519.18 477.77 529.72 477.10 539.93 C 477.00 547.31 476.74 555.18 480.17 561.94 C 481.26 564.52 484.95 564.59 486.77 562.78 C 491.11 559.06 492.40 553.14 493.71 547.85 C 496.54 534.13 496.98 520.08 497.93 506.16 C 493.41 503.38 487.97 506.55 485.35 510.48 Z" />
<path fill="#000000" opacity="1.00" d=" M 316.54 502.48 C 321.63 498.37 328.38 495.97 334.92 497.15 C 342.13 498.96 346.92 505.87 348.11 512.92 C 350.16 524.06 347.35 535.50 342.53 545.57 C 335.23 560.87 325.27 575.28 311.73 585.70 C 308.43 588.51 304.50 590.47 301.21 593.28 C 299.24 597.95 297.81 602.84 296.01 607.58 C 311.00 608.77 325.88 613.31 341.00 611.37 C 345.12 610.99 347.79 607.67 351.07 605.61 C 352.71 612.15 348.90 619.03 343.19 622.20 C 335.34 626.84 325.87 627.32 316.98 626.98 C 307.97 626.33 299.01 625.21 290.06 624.03 C 288.09 624.06 285.46 623.24 284.24 625.33 C 278.34 632.32 270.05 637.28 261.05 638.97 C 256.30 639.73 250.81 639.37 247.30 635.68 C 243.96 632.18 244.39 626.61 246.76 622.70 C 250.74 614.59 259.46 610.27 267.92 608.43 C 272.86 607.51 277.87 606.77 282.91 606.97 C 283.50 604.82 283.89 602.63 284.17 600.44 C 273.97 602.90 263.15 604.25 252.94 601.07 C 246.37 599.24 239.70 595.89 236.10 589.85 C 234.06 586.63 234.07 582.65 234.71 579.03 C 238.26 581.09 240.97 584.34 244.60 586.32 C 256.56 593.75 271.48 594.48 284.99 591.77 C 287.79 574.20 288.90 556.27 293.85 539.09 C 297.74 525.12 304.94 511.52 316.54 502.48 M 317.26 510.25 C 311.80 516.55 310.81 525.17 309.63 533.10 C 307.49 550.42 306.15 567.86 303.20 585.08 C 325.07 573.29 337.29 547.41 335.28 523.01 C 335.14 517.15 333.36 510.34 328.01 507.15 C 324.29 504.80 319.74 507.23 317.26 510.25 M 254.35 626.37 C 251.72 628.52 251.59 633.48 255.10 634.77 C 261.78 635.89 268.69 633.12 273.48 628.49 C 275.22 626.77 277.19 624.89 277.16 622.26 C 269.50 621.41 260.38 620.53 254.35 626.37 Z" />
<path fill="#000000" opacity="1.00" d=" M 382.03 531.23 C 388.49 530.23 395.50 532.18 400.12 536.90 C 404.33 541.20 406.74 547.09 407.25 553.04 C 409.19 569.93 401.37 587.92 386.99 597.23 C 381.92 600.62 375.88 602.10 369.91 602.84 C 362.36 603.62 354.60 599.79 350.71 593.26 C 345.30 584.92 345.68 574.38 347.36 564.97 C 350.88 548.30 364.39 532.81 382.03 531.23 M 372.37 538.42 C 369.55 539.86 367.67 542.61 366.60 545.53 C 364.71 550.78 363.81 556.39 363.94 561.97 C 363.72 571.17 364.94 580.63 368.90 589.02 C 370.69 592.06 372.98 596.16 377.00 596.10 C 381.32 596.61 384.67 592.90 386.24 589.28 C 389.76 580.68 390.21 571.09 389.01 561.97 C 388.17 554.42 386.53 546.47 381.60 540.45 C 379.53 537.64 375.43 536.84 372.37 538.42 Z" />
<path fill="#000000" opacity="1.00" d=" M 670.11 543.11 C 673.22 545.64 675.28 549.15 677.80 552.23 C 683.80 559.86 689.45 567.79 695.71 575.20 C 697.46 577.61 700.46 577.84 703.18 577.66 C 698.94 579.19 694.53 580.22 690.13 581.18 C 690.13 580.69 690.13 579.72 690.14 579.24 C 687.94 575.61 685.19 572.37 682.70 568.95 C 678.49 570.12 674.26 571.25 670.05 572.41 C 668.96 576.67 668.90 581.12 669.04 585.50 C 670.28 585.66 671.54 585.81 672.80 585.93 C 668.60 587.35 664.32 588.47 660.06 589.68 C 661.79 588.32 664.40 587.41 664.82 584.98 C 667.11 571.10 667.48 556.92 670.11 543.11 M 671.69 554.01 C 671.06 559.27 670.46 564.55 670.25 569.84 C 673.80 568.93 677.35 568.04 680.82 566.84 C 678.06 562.37 675.14 557.97 671.69 554.01 Z" />
<path fill="#000000" opacity="1.00" d=" M 613.12 562.99 C 619.97 555.84 630.54 553.76 640.09 553.74 C 640.84 556.80 641.78 559.84 642.16 562.99 C 640.46 561.32 639.39 558.77 636.99 557.99 C 632.46 556.19 627.46 557.41 623.11 559.11 C 618.33 560.94 614.67 565.85 614.97 571.06 C 614.30 578.91 617.76 587.26 624.47 591.61 C 630.58 595.25 639.05 595.15 644.79 590.82 C 647.31 589.13 647.30 585.85 648.56 583.36 C 649.28 586.28 649.06 589.30 649.09 592.27 C 640.67 596.93 630.16 599.79 620.86 596.12 C 608.20 591.38 603.80 572.85 613.12 562.99 Z" />
<path fill="#000000" opacity="1.00" d=" M 574.00 570.58 C 578.82 569.75 583.41 568.01 588.17 566.90 C 587.25 567.68 586.29 568.41 585.42 569.24 C 585.01 570.86 585.64 572.49 586.00 574.06 C 588.45 582.85 590.91 591.63 593.37 600.42 C 594.01 602.33 594.39 604.51 595.90 605.98 C 597.62 606.16 599.34 605.77 601.02 605.39 C 596.03 607.96 590.23 608.46 585.00 610.48 C 586.00 609.57 587.03 608.69 588.08 607.84 C 586.58 598.88 583.71 590.23 581.43 581.45 C 580.41 577.98 579.85 574.29 577.85 571.20 C 576.56 571.00 575.27 570.80 574.00 570.58 Z" />
<path fill="#000000" opacity="1.00" d=" M 537.04 581.03 C 541.44 579.78 546.12 577.97 550.71 579.40 C 555.68 581.07 558.10 587.26 556.47 592.06 C 555.75 594.70 553.99 596.91 553.22 599.52 C 555.12 601.71 557.79 603.02 560.06 604.79 C 565.20 608.35 570.39 613.06 577.13 612.40 C 572.80 613.83 567.67 616.39 563.33 613.70 C 557.96 610.98 553.81 606.51 549.03 602.97 C 546.93 602.91 544.90 603.50 542.90 604.02 C 543.48 609.20 545.35 614.14 547.25 618.97 C 548.94 619.12 550.64 619.19 552.34 619.28 C 548.21 620.84 543.85 621.63 539.61 622.83 C 540.74 618.09 538.75 613.54 537.57 609.06 C 535.05 600.85 533.55 592.30 530.18 584.37 C 528.44 584.41 526.71 584.44 524.98 584.47 C 528.89 582.98 533.05 582.30 537.04 581.03 M 537.01 583.37 C 538.43 589.55 540.22 595.64 542.00 601.73 C 545.39 601.27 550.09 601.20 551.34 597.26 C 552.83 592.60 551.32 586.84 547.51 583.69 C 544.50 581.23 540.32 581.98 537.01 583.37 Z" />
<path fill="#000000" opacity="1.00" d=" M 484.97 595.43 C 493.21 593.00 501.60 591.09 509.76 588.41 C 510.30 590.67 510.83 592.95 511.09 595.29 C 509.98 594.24 508.95 593.15 507.94 592.04 C 504.25 592.88 500.33 593.33 496.90 594.91 C 497.40 599.89 499.25 604.61 500.57 609.42 C 504.93 608.67 509.18 607.35 513.12 605.32 C 513.45 607.60 513.85 609.87 514.14 612.16 C 510.93 607.65 505.25 611.01 501.13 612.21 C 503.12 618.29 504.18 624.69 507.07 630.47 C 508.82 630.41 510.59 630.33 512.36 630.32 C 507.97 632.04 503.27 632.69 498.81 634.16 C 499.06 631.07 498.94 627.93 497.99 624.96 C 495.21 615.35 492.85 605.62 489.78 596.10 C 488.21 595.63 486.60 595.39 484.97 595.43 Z" />
<path fill="#000000" opacity="1.00" d=" M 453.27 602.92 C 454.77 603.09 455.49 604.48 456.36 605.54 C 463.65 614.97 470.72 624.57 478.23 633.83 C 479.88 636.54 482.83 637.65 485.93 637.28 L 485.97 637.78 C 481.77 638.87 477.61 640.09 473.40 641.12 C 473.51 640.59 473.73 639.54 473.83 639.02 C 471.60 635.54 468.76 632.49 466.60 628.96 C 462.15 629.64 457.70 630.78 453.58 632.57 C 452.69 635.81 452.58 639.46 452.18 642.88 C 451.92 645.19 454.32 645.86 456.15 645.58 C 452.23 647.05 448.18 648.37 444.04 648.99 C 445.98 647.76 448.39 646.61 448.54 643.99 C 450.14 630.30 451.65 616.60 453.27 602.92 M 455.19 613.74 C 454.66 618.88 453.84 623.99 453.89 629.18 C 457.45 628.87 460.84 627.69 464.25 626.67 C 461.71 622.05 458.55 617.78 455.19 613.74 Z" />
</g>
</svg>
